{"accessors":[{"name":"Rectangle001_1_0_positions","componentType":5126,"count":1336,"min":[-0.5641000270843506,-0.9139999747276306,0],"max":[7.283400058746338,6.933499813079834,21.853700637817383],"type":"VEC3","bufferView":0,"byteOffset":0},{"name":"Rectangle001_1_0_normals","componentType":5126,"count":1336,"min":[-0.9992469549179077,-0.9985945224761963,-1],"max":[0.9998588562011719,0.9984809160232544,1],"type":"VEC3","bufferView":1,"byteOffset":0},{"name":"Rectangle001_1_0_texcoords","componentType":5126,"count":1336,"min":[0.004699999932199717,0.013299999758601189],"max":[0.9961000084877014,0.9975000023841858],"type":"VEC2","bufferView":2,"byteOffset":0},{"name":"Rectangle001_1_0_indices","componentType":5123,"count":2928,"min":[0],"max":[1335],"type":"SCALAR","bufferView":3,"byteOffset":0}],"asset":{"generator":"obj2gltf","version":"2.0"},"buffers":[{"name":"DEL_RPC_21","byteLength":241276,"uri":"data:application/octet-stream;base64,"}],"bufferViews":[{"name":"bufferView_0","buffer":0,"byteLength":16032,"byteOffset":0,"byteStride":12,"target":34962},{"name":"bufferView_1","buffer":0,"byteLength":16032,"byteOffset":16032,"byteStride":12,"target":34962},{"name":"bufferView_2","buffer":0,"byteLength":10688,"byteOffset":32064,"byteStride":8,"target":34962},{"name":"bufferView_3","buffer":0,"byteLength":5856,"byteOffset":42752,"target":34963},{"buffer":0,"byteOffset":48608,"byteLength":192666}],"images":[{"name":"DEL_RPC_21","mimeType":"image/png","bufferView":4}],"materials":[{"name":"Material__16","pbrMetallicRoughness":{"baseColorTexture":{"index":0},"baseColorFactor":[1,1,1,1],"metallicFactor":0,"roughnessFactor":0.99},"emissiveFactor":[0,0,0],"alphaMode":"OPAQUE","doubleSided":false}],"meshes":[{"name":"Rectangle001_1","primitives":[{"attributes":{"POSITION":0,"NORMAL":1,"TEXCOORD_0":2},"indices":3,"material":0,"mode":4}]}],"nodes":[{"name":"Rectangle001","mesh":0}],"samplers":[{"wrapS":10497,"wrapT":10497}],"scene":0,"scenes":[{"nodes":[0]}],"textures":[{"name":"DEL_RPC_21","sampler":0,"source":0}]}