{"accessors":[{"name":"Object05_1_0_positions","componentType":5126,"count":689,"min":[0.08235599845647812,-1.3981349468231201,0.004906000103801489],"max":[24.17901611328125,33.0244140625,40.84699249267578],"type":"VEC3","bufferView":0,"byteOffset":0},{"name":"Object05_1_0_normals","componentType":5126,"count":689,"min":[-0.9981335997581482,-0.9981345534324646,-1],"max":[0.998134970664978,0.9981345534324646,1],"type":"VEC3","bufferView":1,"byteOffset":0},{"name":"Object05_1_0_texcoords","componentType":5126,"count":689,"min":[0.023377999663352966,0.009184000082314014],"max":[0.9904389977455139,0.9818320274353027],"type":"VEC2","bufferView":2,"byteOffset":0},{"name":"Object05_1_0_indices","componentType":5123,"count":1446,"min":[0],"max":[688],"type":"SCALAR","bufferView":3,"byteOffset":0}],"asset":{"generator":"obj2gltf","version":"2.0"},"buffers":[{"name":"DEL_ING_31","byteLength":345124,"uri":"data:application/octet-stream;base64,"}],"bufferViews":[{"name":"bufferView_0","buffer":0,"byteLength":8268,"byteOffset":0,"byteStride":12,"target":34962},{"name":"bufferView_1","buffer":0,"byteLength":8268,"byteOffset":8268,"byteStride":12,"target":34962},{"name":"bufferView_2","buffer":0,"byteLength":5512,"byteOffset":16536,"byteStride":8,"target":34962},{"name":"bufferView_3","buffer":0,"byteLength":2892,"byteOffset":22048,"target":34963},{"buffer":0,"byteOffset":24940,"byteLength":320183}],"images":[{"name":"DEL_ING_31","mimeType":"image/png","bufferView":4}],"materials":[{"name":"01_-_Default","pbrMetallicRoughness":{"baseColorTexture":{"index":0},"baseColorFactor":[1,1,1,1],"metallicFactor":0,"roughnessFactor":1},"emissiveFactor":[0,0,0],"alphaMode":"OPAQUE","doubleSided":false}],"meshes":[{"name":"Object05_1","primitives":[{"attributes":{"POSITION":0,"NORMAL":1,"TEXCOORD_0":2},"indices":3,"material":0,"mode":4}]}],"nodes":[{"name":"Object05","mesh":0}],"samplers":[{"wrapS":10497,"wrapT":10497}],"scene":0,"scenes":[{"nodes":[0]}],"textures":[{"name":"DEL_ING_31","sampler":0,"source":0}]}